<svg xmlns="http://www.w3.org/2000/svg" fill="none" viewBox="0 0 96 96" id="Google-Gmail--Streamline-Svg-Logos">
  <desc>
    Google Gmail Streamline Icon: https://streamlinehq.com
  </desc>
  <path fill="#161614" d="M22.3636 83.2591V46.9409L11.1001 36.6363 1 30.9182V76.85c0 3.5463 2.87341 6.4091 6.40909 6.4091H22.3636Z" stroke-width="1"></path>
  <path fill="#161614" d="M73.6357 83.2591h14.9546c3.5464 0 6.4091 -2.8734 6.4091 -6.4091V30.9182l-11.44 6.5499 -9.9237 9.4728v36.3182Z" stroke-width="1"></path>
  <path fill="#161614" d="m22.3637 46.9409 -1.5326 -14.1908 1.5326 -13.5819 25.6364 19.2272 25.6363 -19.2272 1.7146 12.8486 -1.7146 14.9241 -25.6363 19.2273 -25.6364 -19.2273Z" stroke-width="1"></path>
  <path fill="#161614" d="M73.6357 19.1682v27.7727l21.3637 -16.0227v-8.5455c0 -7.9259 -9.0475 -12.4443 -15.3818 -7.6909l-5.9819 4.4864Z" stroke-width="1"></path>
  <path fill="#161614" d="m1 30.9182 9.8255 7.3691 11.5381 8.6536V19.1682l-5.9818 -4.4864C10.0368 9.9284 1 14.4468 1 22.3727v8.5455Z" stroke-width="1"></path>
</svg>